# xmcd CD database file
# Copyright (C) 1993-1998 Ti Kan
#
# Track frame offsets:
#	150
#	13632
#	35010
#	47662
#	61532
#	72762
#	83410
#	94365
#	103692
#	117182
#	132545
#	148217
#	157255
#	172167
#	186492
#
# Disc length: 2635 seconds
#
# Revision: 1
# Processed by: cddbd v1.4b41PL1 Copyright (c) Steve Scherf et al.
# Submitted via: xmcd 2.3 PL0
#
DISCID=d80a490f
DTITLE=Andy Lee Lang/Three Girl Madhouse/The Jive Giants - That's Enter
DTITLE=tainment
DYEAR=1900
DGENRE=
TTITLE0=In The Mood
TTITLE1=Just A Gigolo
TTITLE2=Bad Leroy Brown
TTITLE3=Volare
TTITLE4=Way Down Yonder In New Orleans
TTITLE5=Diamonds Are The Girls Best Friend
TTITLE6=I Wanna Be Like You
TTITLE7=The Big Beat
TTITLE8=High Society
TTITLE9=Mack The Knife
TTITLE10=Bei Mir Bist Du Schön
TTITLE11=I'm Sitting On Top Of The World/It's Only A Papermoon
TTITLE12=Tha Lady Is A Tramp
TTITLE13=Love Makes The Worldf Go Round
TTITLE14=Up Above My Head
EXTD=
EXTT0=
EXTT1=
EXTT2=
EXTT3=
EXTT4=
EXTT5=
EXTT6=
EXTT7=
EXTT8=
EXTT9=
EXTT10=
EXTT11=
EXTT12=
EXTT13=
EXTT14=
PLAYORDER=
